<svg xmlns="http://www.w3.org/2000/svg" width="500px" height="500px">
<line x1="100" x2="100.22067669" y1="100" y2="100.04389532" stroke="black" stroke-width="1" />
<line x1="100.22067669" x2="100.32335784" y1="100.04389532" y2="100.1339392" stroke="black" stroke-width="1" />
<line x1="100.32335784" x2="100.39494807" y1="100.1339392" y2="100.26389586" stroke="black" stroke-width="1" />
<line x1="100.39494807" x2="100.42426407" y1="100.26389586" y2="100.42426406" stroke="black" stroke-width="1" />
<line x1="100.42426407" x2="100.40278843" y1="100.42426406" y2="100.60281546" stroke="black" stroke-width="1" />
<line x1="100.40278843" x2="100.32528093" y1="100.60281546" y2="100.7852976" stroke="black" stroke-width="1" />
<line x1="100.32528093" x2="100.19021309" y1="100.7852976" y2="100.95626564" stroke="black" stroke-width="1" />
<line x1="100.19021309" x2="100.00000003" y1="100.95626564" y2="101.1" stroke="black" stroke-width="1" />
<line x1="100.00000003" x2="99.761014392" y1="101.1" y2="101.20146198" stroke="black" stroke-width="1" />
<line x1="99.761014392" x2="99.483377408" y1="101.20146198" y2="101.24723739" stroke="black" stroke-width="1" />
<line x1="99.483377408" x2="99.180533951" y1="101.24723739" y2="101.22641771" stroke="black" stroke-width="1" />
<line x1="99.180533951" x2="98.868629196" y1="101.22641771" y2="101.1313709" stroke="black" stroke-width="1" />
<line x1="98.868629196" x2="98.565714961" y1="101.1313709" y2="100.95835871" stroke="black" stroke-width="1" />
<line x1="98.565714961" x2="98.290822898" y1="100.95835871" y2="100.70796443" stroke="black" stroke-width="1" />
<line x1="98.290822898" x2="98.062949091" y1="100.70796443" y2="100.38530348" stroke="black" stroke-width="1" />
<line x1="98.062949091" x2="97.9" y1="100.38530348" y2="100.00000011" stroke="black" stroke-width="1" />
<line x1="97.9" x2="97.817752726" y1="100.00000011" y2="99.565924158" stroke="black" stroke-width="1" />
<line x1="97.817752726" x2="97.828883044" y1="99.565924158" y2="99.100694065" stroke="black" stroke-width="1" />
<line x1="97.828883044" x2="97.942112622" y1="99.100694065" y2="98.624963804" stroke="black" stroke-width="1" />
<line x1="97.942112622" x2="98.161522246" y1="98.624963804" y2="98.161522492" stroke="black" stroke-width="1" />
<line x1="98.161522246" x2="98.486070956" y1="98.161522492" y2="97.734245413" stroke="black" stroke-width="1" />
<line x1="98.486070956" x2="98.909352024" y1="97.734245413" y2="97.366943413" stroke="black" stroke-width="1" />
<line x1="98.909352024" x2="99.419606067" y1="97.366943413" y2="97.082163836" stroke="black" stroke-width="1" />
<line x1="99.419606067" x2="99.999999751" y1="97.082163836" y2="96.9" stroke="black" stroke-width="1" />
<line x1="99.999999751" x2="100.62916602" y1="96.9" y2="96.836967418" stroke="black" stroke-width="1" />
<line x1="100.62916602" x2="101.28198923" y1="96.836967418" y2="96.905003454" stroke="black" stroke-width="1" />
<line x1="101.28198923" x2="101.9306063" y1="96.905003454" y2="97.110642923" stroke="black" stroke-width="1" />
<line x1="101.9306063" x2="102.54558417" y1="97.110642923" y2="97.454415349" stroke="black" stroke-width="1" />
<line x1="102.54558417" x2="103.0972241" y1="97.454415349" y2="97.930500581" stroke="black" stroke-width="1" />
<line x1="103.0972241" x2="103.55693605" y1="97.930500581" y2="98.526668428" stroke="black" stroke-width="1" />
<line x1="103.55693605" x2="103.89862141" y1="98.526668428" y2="99.224515565" stroke="black" stroke-width="1" />
<line x1="103.89862141" x2="104.1" y1="99.224515565" y2="99.999999561" stroke="black" stroke-width="1" />
<line x1="104.1" x2="104.1438179" y1="99.999999561" y2="100.82425615" stroke="black" stroke-width="1" />
<line x1="104.1438179" x2="104.01887616" y1="100.82425615" y2="101.66467247" stroke="black" stroke-width="1" />
<line x1="104.01887616" x2="103.72082681" y1="101.66467247" y2="102.48617636" stroke="black" stroke-width="1" />
<line x1="103.72082681" x2="103.25269159" y1="102.48617636" y2="103.2526908" stroke="black" stroke-width="1" />
<line x1="103.25269159" x2="102.62506984" y1="103.2526908" y2="103.92869359" stroke="black" stroke-width="1" />
<line x1="102.62506984" x2="101.85601522" y1="103.92869359" y2="104.4808155" stroke="black" stroke-width="1" />
<line x1="101.85601522" x2="100.97057499" y1="104.4808155" y2="104.87940664" stroke="black" stroke-width="1" />
<line x1="100.97057499" x2="100.00000068" y1="104.87940664" y2="105.1" stroke="black" stroke-width="1" />
<line x1="100.00000068" x2="98.980653771" y1="105.1" y2="105.12460323" stroke="black" stroke-width="1" />
<line x1="98.980653771" x2="97.952644332" y1="105.12460323" y2="104.94275579" stroke="black" stroke-width="1" />
<line x1="97.952644332" x2="96.95825363" y1="104.94275579" y2="104.55229657" stroke="black" stroke-width="1" />
<line x1="96.95825363" x2="96.040202609" y1="104.55229657" y2="103.95979856" stroke="black" stroke-width="1" />
<line x1="96.040202609" x2="95.239836949" y1="103.95979856" y2="103.1806403" stroke="black" stroke-width="1" />
<line x1="95.239836949" x2="94.59530508" y1="103.1806403" y2="102.23869891" stroke="black" stroke-width="1" />
<line x1="94.59530508" x2="94.139808133" y1="102.23869891" y2="101.1656656" stroke="black" stroke-width="1" />
<line x1="94.139808133" x2="93.9" y1="101.1656656" y2="100.00000098" stroke="black" stroke-width="1" />
<line x1="93.9" x2="93.89461143" y1="100.00000098" y2="98.785563747" stroke="black" stroke-width="1" />
<line x1="93.89461143" x2="94.133364562" y1="98.785563747" y2="97.569961187" stroke="black" stroke-width="1" />
<line x1="94.133364562" x2="94.616233646" y1="97.569961187" y2="96.402683661" stroke="black" stroke-width="1" />
<line x1="94.616233646" x2="95.333094431" y1="96.402683661" y2="95.333096057" stroke="black" stroke-width="1" />
<line x1="95.333094431" x2="96.26378919" y1="95.333096057" y2="94.408367521" stroke="black" stroke-width="1" />
<line x1="96.26378919" x2="97.378617344" y1="94.408367521" y2="93.671425676" stroke="black" stroke-width="1" />
<line x1="97.378617344" x2="98.639243744" y1="93.671425676" y2="93.15902292" stroke="black" stroke-width="1" />
<line x1="98.639243744" x2="99.999998668" y1="93.15902292" y2="92.9" stroke="black" stroke-width="1" />
<line x1="99.999998668" x2="101.40952622" y1="92.9" y2="92.91382608" stroke="black" stroke-width="1" />
<line x1="101.40952622" x2="102.81272191" y1="92.91382608" y2="93.20948489" stroke="black" stroke-width="1" />
<line x1="102.81272191" x2="104.15288626" y1="93.20948489" y2="93.784763827" stroke="black" stroke-width="1" />
<line x1="104.15288626" x2="105.37401046" y1="93.784763827" y2="94.625987383" stroke="black" stroke-width="1" />
<line x1="105.37401046" x2="106.42310188" y1="94.625987383" y2="95.708218638" stroke="black" stroke-width="1" />
<line x1="106.42310188" x2="107.25245371" y1="95.708218638" y2="96.99593355" stroke="black" stroke-width="1" />
<line x1="107.25245371" x2="107.82176228" y1="96.99593355" y2="98.444153031" stroke="black" stroke-width="1" />
<line x1="107.82176228" x2="108.1" y1="98.444153031" y2="99.999998264" stroke="black" stroke-width="1" />
<line x1="108.1" x2="108.06695928" y1="99.999998264" y2="101.60461614" stroke="black" stroke-width="1" />
<line x1="108.06695928" x2="107.7143948" y1="101.60461614" y2="103.19540495" stroke="black" stroke-width="1" />
<line x1="107.7143948" x2="107.04670602" y1="103.19540495" y2="104.70845614" stroke="black" stroke-width="1" />
<line x1="107.04670602" x2="106.0811197" y1="104.70845614" y2="106.08111693" stroke="black" stroke-width="1" />
<line x1="106.0811197" x2="104.84735196" y1="106.08111693" y2="107.25457125" stroke="black" stroke-width="1" />
<line x1="104.84735196" x2="103.38675029" y1="107.25457125" y2="108.17633307" stroke="black" stroke-width="1" />
<line x1="103.38675029" x2="101.75093773" y1="108.17633307" y2="108.80254748" stroke="black" stroke-width="1" />
<line x1="101.75093773" x2="100.00000219" y1="108.80254748" y2="109.1" stroke="black" stroke-width="1" />
<line x1="100.00000219" x2="98.200293992" y1="109.1" y2="109.04774465" stroke="black" stroke-width="1" />
<line x1="98.200293992" x2="96.421912048" y1="109.04774465" y2="108.63827452" stroke="black" stroke-width="1" />
<line x1="96.421912048" x2="94.735974021" y1="108.63827452" y2="107.8781759" stroke="black" stroke-width="1" />
<line x1="94.735974021" x2="93.211776629" y1="107.8781759" y2="106.78822683" stroke="black" stroke-width="1" />
<line x1="93.211776629" x2="91.913959414" y1="106.78822683" y2="105.4029226" stroke="black" stroke-width="1" />
<line x1="91.913959414" x2="90.89978759" y1="105.4029226" y2="103.76943419" stroke="black" stroke-width="1" />
<line x1="90.89978759" x2="90.216667343" y1="103.76943419" y2="101.94602855" stroke="black" stroke-width="1" />
<line x1="90.216667343" x2="89.9" y1="101.94602855" y2="100.00000271" stroke="black" stroke-width="1" />
<line x1="89.9" x2="89.971469967" y1="100.00000271" y2="98.005204178" stroke="black" stroke-width="1" />
<line x1="89.971469967" x2="90.437845751" y1="98.005204178" y2="96.039229101" stroke="black" stroke-width="1" />
<line x1="90.437845751" x2="91.290354193" y1="96.039229101" y2="94.18040423" stroke="black" stroke-width="1" />
<line x1="91.290354193" x2="92.504666011" y1="94.18040423" y2="92.504670228" stroke="black" stroke-width="1" />
<line x1="92.504666011" x2="94.041506712" y1="92.504670228" y2="91.082490104" stroke="black" stroke-width="1" />
<line x1="94.041506712" x2="95.847881871" y1="91.082490104" y2="89.975908268" stroke="black" stroke-width="1" />
<line x1="95.847881871" x2="97.858880579" y1="89.975908268" y2="89.235882171" stroke="black" stroke-width="1" />
<line x1="97.858880579" x2="99.999996728" y1="89.235882171" y2="88.9" stroke="black" stroke-width="1" />
<line x1="99.999996728" x2="102.18988558" y1="88.9" y2="88.990684575" stroke="black" stroke-width="1" />
<line x1="102.18988558" x2="104.3434538" y1="88.990684575" y2="89.513965997" stroke="black" stroke-width="1" />
<line x1="104.3434538" x2="106.37516552" y1="89.513965997" y2="90.458884256" stroke="black" stroke-width="1" />
<line x1="106.37516552" x2="108.20243613" y1="90.458884256" y2="91.797558811" stroke="black" stroke-width="1" />
<line x1="108.20243613" x2="109.74897918" y1="91.797558811" y2="93.485935981" stroke="black" stroke-width="1" />
<line x1="109.74897918" x2="110.94797103" y1="93.485935981" y2="95.46519788" stroke="black" stroke-width="1" />
<line x1="110.94797103" x2="111.74490299" y1="95.46519788" y2="97.663789657" stroke="black" stroke-width="1" />
<line x1="111.74490299" x2="112.1" y1="97.663789657" y2="99.999996109" stroke="black" stroke-width="1" />
<line x1="112.1" x2="111.99010083" y1="99.999996109" y2="102.38497529" stroke="black" stroke-width="1" />
<line x1="111.99010083" x2="111.40991378" y1="102.38497529" y2="104.72613664" stroke="black" stroke-width="1" />
<line x1="111.40991378" x2="110.37258571" y1="104.72613664" y2="106.93073522" stroke="black" stroke-width="1" />
<line x1="110.37258571" x2="108.90954843" y1="106.93073522" y2="108.90954246" stroke="black" stroke-width="1" />
<line x1="108.90954843" x2="107.06963479" y1="108.90954246" y2="110.58044842" stroke="black" stroke-width="1" />
<line x1="107.06963479" x2="104.91748616" y1="110.58044842" y2="111.87185031" stroke="black" stroke-width="1" />
<line x1="104.91748616" x2="102.53130132" y1="111.87185031" y2="112.72568814" stroke="black" stroke-width="1" />
<line x1="102.53130132" x2="100.00000456" y1="112.72568814" y2="113.1" stroke="black" stroke-width="1" />
<line x1="100.00000456" x2="97.419935053" y1="113.1" y2="112.97088624" stroke="black" stroke-width="1" />
<line x1="97.419935053" x2="94.891180557" y1="112.97088624" y2="112.33379357" stroke="black" stroke-width="1" />
<line x1="94.891180557" x2="92.513695125" y1="112.33379357" y2="111.20405571" stroke="black" stroke-width="1" />
<line x1="92.513695125" x2="90.383351255" y1="111.20405571" y2="109.6166557" stroke="black" stroke-width="1" />
<line x1="90.383351255" x2="88.588082355" y1="109.6166557" y2="107.62520561" stroke="black" stroke-width="1" />
<line x1="88.588082355" x2="87.204270427" y1="107.62520561" y2="105.30017025" stroke="black" stroke-width="1" />
<line x1="87.204270427" x2="86.29352672" y1="105.30017025" y2="102.72639235" stroke="black" stroke-width="1" />
<line x1="86.29352672" x2="85.9" y1="102.72639235" y2="100.00000529" stroke="black" stroke-width="1" />
<line x1="85.9" x2="86.048328336" y1="100.00000529" y2="97.22484545" stroke="black" stroke-width="1" />
<line x1="86.048328336" x2="86.742326612" y1="97.22484545" y2="94.508497808" stroke="black" stroke-width="1" />
<line x1="86.742326612" x2="87.964474264" y1="94.508497808" y2="91.958125513" stroke="black" stroke-width="1" />
<line x1="87.964474264" x2="89.676236984" y1="91.958125513" y2="89.676245006" stroke="black" stroke-width="1" />
<line x1="89.676236984" x2="91.819223521" y1="89.676245006" y2="87.756613165" stroke="black" stroke-width="1" />
<line x1="91.819223521" x2="94.317145607" y1="87.756613165" y2="86.280391188" stroke="black" stroke-width="1" />
<line x1="94.317145607" x2="97.078516574" y1="86.280391188" y2="85.31274159" stroke="black" stroke-width="1" />
<line x1="97.078516574" x2="99.999993931" y1="85.31274159" y2="84.9" stroke="black" stroke-width="1" />
<line x1="99.999993931" x2="102.9702441" y1="84.9" y2="85.067542902" stroke="black" stroke-width="1" />
<line x1="102.9702441" x2="105.87418489" y1="85.067542902" y2="85.818446776" stroke="black" stroke-width="1" />
<line x1="105.87418489" x2="108.59744406" y1="85.818446776" y2="87.133004208" stroke="black" stroke-width="1" />
<line x1="108.59744406" x2="111.03086121" y1="87.133004208" y2="88.969129632" stroke="black" stroke-width="1" />
<line x1="111.03086121" x2="113.074856" y1="88.969129632" y2="91.263652612" stroke="black" stroke-width="1" />
<line x1="113.074856" x2="114.64348803" y1="91.263652612" y2="93.934461417" stroke="black" stroke-width="1" />
<line x1="114.64348803" x2="115.66804353" y1="93.934461417" y2="96.883425441" stroke="black" stroke-width="1" />
<line x1="115.66804353" x2="116.1" y1="96.883425441" y2="99.999993098" stroke="black" stroke-width="1" />
<line x1="116.1" x2="115.91324254" y1="99.999993098" y2="103.1653336" stroke="black" stroke-width="1" />
<line x1="115.91324254" x2="115.10543308" y1="103.1653336" y2="106.25686754" stroke="black" stroke-width="1" />
<line x1="115.10543308" x2="113.69846588" y1="106.25686754" y2="109.15301358" stroke="black" stroke-width="1" />
<line x1="113.69846588" x2="111.73797776" y1="109.15301358" y2="111.73796738" stroke="black" stroke-width="1" />
<line x1="111.73797776" x2="109.29191834" y1="111.73796738" y2="113.90632513" stroke="black" stroke-width="1" />
<line x1="109.29191834" x2="106.44822282" y1="113.90632513" y2="115.56736723" stroke="black" stroke-width="1" />
<line x1="106.44822282" x2="103.31166574" y1="115.56736723" y2="116.64882864" stroke="black" stroke-width="1" />
<line x1="103.31166574" x2="100.00000779" y1="116.64882864" y2="117.1" stroke="black" stroke-width="1" />
<line x1="100.00000779" x2="96.639576955" y1="117.1" y2="116.894028" stroke="black" stroke-width="1" />
<line x1="96.639576955" x2="93.360449857" y1="116.894028" y2="116.02931296" stroke="black" stroke-width="1" />
<line x1="93.360449857" x2="90.291416943" y1="116.02931296" y2="114.52993599" stroke="black" stroke-width="1" />
<line x1="90.291416943" x2="87.554926487" y1="114.52993599" y2="112.44508518" stroke="black" stroke-width="1" />
<line x1="87.554926487" x2="85.262205773" y1="112.44508518" y2="109.84748934" stroke="black" stroke-width="1" />
<line x1="85.262205773" x2="83.508753594" y1="109.84748934" y2="106.83090711" stroke="black" stroke-width="1" />
<line x1="83.508753594" x2="82.370386264" y1="106.83090711" y2="103.50675698" stroke="black" stroke-width="1" />
<line x1="82.370386264" x2="81.9" y1="103.50675698" y2="100.00000873" stroke="black" stroke-width="1" />
<line x1="81.9" x2="82.125186538" y1="100.00000873" y2="96.444487562" stroke="black" stroke-width="1" />
<line x1="82.125186538" x2="83.046807144" y1="96.444487562" y2="92.977767306" stroke="black" stroke-width="1" />
<line x1="83.046807144" x2="84.638593859" y1="92.977767306" y2="89.735847508" stroke="black" stroke-width="1" />
<line x1="84.638593859" x2="86.84780735" y1="89.735847508" y2="86.84782039" stroke="black" stroke-width="1" />
<line x1="86.84780735" x2="89.596939617" y1="86.84782039" y2="84.430736701" stroke="black" stroke-width="1" />
<line x1="89.596939617" x2="92.78640855" y1="84.430736701" y2="82.584874436" stroke="black" stroke-width="1" />
<line x1="92.78640855" x2="96.298151727" y1="82.584874436" y2="81.389601177" stroke="black" stroke-width="1" />
<line x1="96.298151727" x2="99.999990276" y1="81.389601177" y2="80.9" stroke="black" stroke-width="1" />
<line x1="99.999990276" x2="103.75060178" y1="80.9" y2="81.144401062" stroke="black" stroke-width="1" />
<line x1="103.75060178" x2="107.4049152" y1="81.144401062" y2="82.122927226" stroke="black" stroke-width="1" />
<line x1="107.4049152" x2="110.81972188" y1="82.122927226" y2="83.807123683" stroke="black" stroke-width="1" />
<line x1="110.81972188" x2="113.85928567" y1="83.807123683" y2="86.140699847" stroke="black" stroke-width="1" />
<line x1="113.85928567" x2="116.40073234" y1="86.140699847" y2="89.041368529" stroke="black" stroke-width="1" />
<line x1="116.40073234" x2="118.3390047" y1="89.041368529" y2="92.403724163" stroke="black" stroke-width="1" />
<line x1="118.3390047" x2="119.5911839" y1="92.403724163" y2="96.103060384" stroke="black" stroke-width="1" />
<line x1="119.5911839" x2="120.1" y1="96.103060384" y2="99.999989228" stroke="black" stroke-width="1" />
<line x1="120.1" x2="119.83638442" y1="99.999989228" y2="103.94569107" stroke="black" stroke-width="1" />
<line x1="119.83638442" x2="118.80095271" y1="103.94569107" y2="107.78759765" stroke="black" stroke-width="1" />
<line x1="118.80095271" x2="117.02434652" y1="107.78759765" y2="111.37529123" stroke="black" stroke-width="1" />
<line x1="117.02434652" x2="114.56640769" y1="111.37529123" y2="114.56639169" stroke="black" stroke-width="1" />
<line x1="114.56640769" x2="111.5142026" y1="114.56639169" y2="117.23220135" stroke="black" stroke-width="1" />
<line x1="111.5142026" x2="107.97896027" y1="117.23220135" y2="119.26288382" stroke="black" stroke-width="1" />
<line x1="107.97896027" x2="104.09203101" y1="119.26288382" y2="120.57196897" stroke="black" stroke-width="1" />
<line x1="104.09203101" x2="100.00001187" y1="120.57196897" y2="121.1" stroke="black" stroke-width="1" />
<line x1="100.00001187" x2="95.859219699" y1="121.1" y2="120.81716992" stroke="black" stroke-width="1" />
<line x1="95.859219699" x2="91.82971995" y1="120.81716992" y2="119.72483267" stroke="black" stroke-width="1" />
<line x1="91.82971995" x2="88.069139473" y1="119.72483267" y2="117.85581676" stroke="black" stroke-width="1" />
<line x1="88.069139473" x2="84.726502325" y1="117.85581676" y2="115.27351527" stroke="black" stroke-width="1" />
<line x1="84.726502325" x2="81.936329666" y1="115.27351527" y2="112.06977378" stroke="black" stroke-width="1" />
<line x1="81.936329666" x2="79.813237088" y1="112.06977378" y2="108.36164476" stroke="black" stroke-width="1" />
<line x1="79.813237088" x2="78.447245976" y1="108.36164476" y2="104.28712246" stroke="black" stroke-width="1" />
<line x1="78.447245976" x2="77.9" y1="104.28712246" y2="100.00001303" stroke="black" stroke-width="1" />
<line x1="77.9" x2="78.202044573" y1="100.00001303" y2="95.664130516" stroke="black" stroke-width="1" />
<line x1="78.202044573" x2="79.351287349" y1="95.664130516" y2="91.447037597" stroke="black" stroke-width="1" />
<line x1="79.351287349" x2="81.312712977" y1="91.447037597" y2="87.513570217" stroke="black" stroke-width="1" />
<line x1="81.312712977" x2="84.019377111" y1="87.513570217" y2="84.01939638" stroke="black" stroke-width="1" />
<line x1="84.019377111" x2="87.374655" y1="84.01939638" y2="81.104860714" stroke="black" stroke-width="1" />
<line x1="87.374655" x2="91.255670702" y1="81.104860714" y2="78.889358013" stroke="black" stroke-width="1" />
<line x1="91.255670702" x2="95.51778604" y1="78.889358013" y2="77.46646093" stroke="black" stroke-width="1" />
<line x1="95.51778604" x2="99.999985764" y1="77.46646093" y2="76.9" stroke="black" stroke-width="1" />
<line x1="99.999985764" x2="104.53095861" y1="76.9" y2="77.221259055" stroke="black" stroke-width="1" />
<line x1="104.53095861" x2="108.93564471" y1="77.221259055" y2="78.427407349" stroke="black" stroke-width="1" />
<line x1="108.93564471" x2="113.04199899" y1="78.427407349" y2="80.481242683" stroke="black" stroke-width="1" />
<line x1="113.04199899" x2="116.68770953" y1="80.481242683" y2="83.312269456" stroke="black" stroke-width="1" />
<line x1="116.68770953" x2="119.72660821" y1="83.312269456" y2="86.819083734" stroke="black" stroke-width="1" />
<line x1="119.72660821" x2="122.03452104" y1="86.819083734" y2="90.872986116" stroke="black" stroke-width="1" />
<line x1="122.03452104" x2="123.51432411" y1="90.872986116" y2="95.322694487" stroke="black" stroke-width="1" />
<line x1="123.51432411" x2="124.1" y1="95.322694487" y2="99.999984502" stroke="black" stroke-width="1" />
<line x1="124.1" x2="123.75952647" y1="99.999984502" y2="104.72604769" stroke="black" stroke-width="1" />
<line x1="123.75952647" x2="122.49647267" y1="104.72604769" y2="109.31832696" stroke="black" stroke-width="1" />
<line x1="122.49647267" x2="120.35022764" y1="109.31832696" y2="113.59756816" stroke="black" stroke-width="1" />
<line x1="120.35022764" x2="117.39483824" y1="113.59756816" y2="117.3948154" stroke="black" stroke-width="1" />
<line x1="117.39483824" x2="113.73648758" y1="117.3948154" y2="120.5580771" stroke="black" stroke-width="1" />
<line x1="113.73648758" x2="109.50969852" y1="120.5580771" y2="122.95840008" stroke="black" stroke-width="1" />
<line x1="109.50969852" x2="104.87239712" y1="122.95840008" y2="124.49510913" stroke="black" stroke-width="1" />
<line x1="104.87239712" x2="100.00001681" y1="124.49510913" y2="125.1" stroke="black" stroke-width="1" />
<line x1="100.00001681" x2="95.078863283" y1="125.1" y2="124.74031201" stroke="black" stroke-width="1" />
<line x1="95.078863283" x2="90.298990835" y1="124.74031201" y2="123.42035271" stroke="black" stroke-width="1" />
<line x1="90.298990835" x2="85.846862716" y1="123.42035271" y2="121.181698" stroke="black" stroke-width="1" />
<line x1="85.846862716" x2="81.89807877" y1="121.181698" y2="118.10194597" stroke="black" stroke-width="1" />
<line x1="81.89807877" x2="78.610454037" y1="118.10194597" y2="114.29205893" stroke="black" stroke-width="1" />
<line x1="78.610454037" x2="76.11772091" y1="114.29205893" y2="109.8923832" stroke="black" stroke-width="1" />
<line x1="76.11772091" x2="74.524105855" y1="109.8923832" y2="105.06748878" stroke="black" stroke-width="1" />
<line x1="74.524105855" x2="73.9" y1="105.06748878" y2="100.00001818" stroke="black" stroke-width="1" />
<line x1="73.9" x2="74.27890244" y1="100.00001818" y2="94.88377431" stroke="black" stroke-width="1" />
<line x1="74.27890244" x2="75.655767226" y1="94.88377431" y2="89.91630868" stroke="black" stroke-width="1" />
<line x1="75.655767226" x2="77.986831619" y1="89.91630868" y2="85.291293638" stroke="black" stroke-width="1" />
<line x1="77.986831619" x2="81.190946265" y1="85.291293638" y2="81.190972976" stroke="black" stroke-width="1" />
<line x1="81.190946265" x2="85.15236967" y1="81.190972976" y2="77.778985204" stroke="black" stroke-width="1" />
<line x1="85.15236967" x2="89.724932061" y1="77.778985204" y2="75.193841917" stroke="black" stroke-width="1" />
<line x1="89.724932061" x2="94.737419512" y1="75.193841917" y2="73.543320851" stroke="black" stroke-width="1" />
<line x1="94.737419512" x2="99.999980394" y1="73.543320851" y2="72.9" stroke="black" stroke-width="1" />
<line x1="99.999980394" x2="105.31131461" y1="72.9" y2="73.298116881" stroke="black" stroke-width="1" />
<line x1="105.31131461" x2="110.46637343" y1="73.298116881" y2="74.731887144" stroke="black" stroke-width="1" />
<line x1="110.46637343" x2="115.2642754" y1="74.731887144" y2="77.155361205" stroke="black" stroke-width="1" />
<line x1="115.2642754" x2="119.51613278" y1="77.155361205" y2="80.483838459" stroke="black" stroke-width="1" />
<line x1="119.51613278" x2="123.0524836" y1="80.483838459" y2="84.596798226" stroke="black" stroke-width="1" />
<line x1="123.0524836" x2="125.73003706" y1="84.596798226" y2="89.342247277" stroke="black" stroke-width="1" />
<line x1="125.73003706" x2="127.43746414" y1="89.342247277" y2="94.542327748" stroke="black" stroke-width="1" />
<line x1="127.43746414" x2="128.1" y1="94.542327748" y2="99.999978918" stroke="black" stroke-width="1" />
<line x1="128.1" x2="127.68266869" y1="99.999978918" y2="105.50640348" stroke="black" stroke-width="1" />
<line x1="127.68266869" x2="126.19199296" y1="105.50640348" y2="110.84905548" stroke="black" stroke-width="1" />
<line x1="126.19199296" x2="123.67610924" y1="110.84905548" y2="115.81984438" stroke="black" stroke-width="1" />
<line x1="123.67610924" x2="120.22326939" y1="115.81984438" y2="120.2232385" stroke="black" stroke-width="1" />
<line x1="120.22326939" x2="115.95877326" y1="120.2232385" y2="123.88395237" stroke="black" stroke-width="1" />
<line x1="115.95877326" x2="111.04043756" y1="123.88395237" y2="126.65391601" stroke="black" stroke-width="1" />
<line x1="111.04043756" x2="105.65276407" y1="126.65391601" y2="128.41824913" stroke="black" stroke-width="1" />
<line x1="105.65276407" x2="100.00002261" y1="128.41824913" y2="129.1" stroke="black" stroke-width="1" />
<line x1="100.00002261" x2="94.298507708" y1="129.1" y2="128.66345427" stroke="black" stroke-width="1" />
<line x1="94.298507708" x2="88.768262512" y1="128.66345427" y2="127.11587308" stroke="black" stroke-width="1" />
<line x1="88.768262512" x2="83.624586672" y1="127.11587308" y2="124.50757971" stroke="black" stroke-width="1" />
<line x1="83.624586672" x2="79.069655821" y1="124.50757971" y2="120.93037727" stroke="black" stroke-width="1" />
<line x1="79.069655821" x2="75.284578883" y1="120.93037727" y2="116.5143448" stroke="black" stroke-width="1" />
<line x1="75.284578883" x2="72.42220506" y1="116.5143448" y2="111.42312244" stroke="black" stroke-width="1" />
<line x1="72.42220506" x2="70.600965901" y1="111.42312244" y2="105.84785594" stroke="black" stroke-width="1" />
<line x1="70.600965901" x2="69.9" y1="105.84785594" y2="100.0000242" stroke="black" stroke-width="1" />
<line x1="69.9" x2="70.35576014" y1="100.0000242" y2="94.103418946" stroke="black" stroke-width="1" />
<line x1="70.35576014" x2="71.960246774" y1="94.103418946" y2="88.385580555" stroke="black" stroke-width="1" />
<line x1="71.960246774" x2="74.660949785" y1="88.385580555" y2="83.069017772" stroke="black" stroke-width="1" />
<line x1="74.660949785" x2="78.362514813" y1="83.069017772" y2="78.362550179" stroke="black" stroke-width="1" />
<line x1="78.362514813" x2="82.930083627" y1="78.362550179" y2="74.453110169" stroke="black" stroke-width="1" />
<line x1="82.930083627" x2="88.194192628" y1="74.453110169" y2="71.498326149" stroke="black" stroke-width="1" />
<line x1="88.194192628" x2="93.957052143" y1="71.498326149" y2="69.620180939" stroke="black" stroke-width="1" />
<line x1="93.957052143" x2="99.999974167" y1="69.620180939" y2="68.9" stroke="black" stroke-width="1" />
<line x1="99.999974167" x2="106.09166976" y1="68.9" y2="69.374974539" stroke="black" stroke-width="1" />
<line x1="106.09166976" x2="111.99710135" y1="69.374974539" y2="71.03636661" stroke="black" stroke-width="1" />
<line x1="111.99710135" x2="117.48655108" y1="71.03636661" y2="73.829479252" stroke="black" stroke-width="1" />
<line x1="117.48655108" x2="122.34455543" y1="73.829479252" y2="77.655406855" stroke="black" stroke-width="1" />
<line x1="122.34455543" x2="126.37835851" y1="77.655406855" y2="82.374512005" stroke="black" stroke-width="1" />
<line x1="126.37835851" x2="129.42555274" y1="82.374512005" y2="87.811507646" stroke="black" stroke-width="1" />
<line x1="129.42555274" x2="131.36060401" y1="87.811507646" y2="93.761960169" stroke="black" stroke-width="1" />
<line x1="131.36060401" x2="132.1" y1="93.761960169" y2="99.999972476" stroke="black" stroke-width="1" />
</svg>
