<svg xmlns="http://www.w3.org/2000/svg" width="500px" height="500px">
<line x1="400" x2="400" y1="400" y2="400" stroke="black" stroke-width="1" />
<line x1="400" x2="400" y1="400" y2="402.5" stroke="black" stroke-width="1" />
<line x1="400" x2="395" y1="402.5" y2="402.5" stroke="black" stroke-width="1" />
<line x1="395" x2="395" y1="402.5" y2="395" stroke="black" stroke-width="1" />
<line x1="395" x2="405" y1="395" y2="395" stroke="black" stroke-width="1" />
<line x1="405" x2="405" y1="395" y2="407.5" stroke="black" stroke-width="1" />
<line x1="405" x2="390" y1="407.5" y2="407.5" stroke="black" stroke-width="1" />
<line x1="390" x2="390" y1="407.5" y2="390" stroke="black" stroke-width="1" />
<line x1="390" x2="410" y1="390" y2="390" stroke="black" stroke-width="1" />
<line x1="410" x2="410" y1="390" y2="412.5" stroke="black" stroke-width="1" />
<line x1="410" x2="385" y1="412.5" y2="412.5" stroke="black" stroke-width="1" />
<line x1="385" x2="385" y1="412.5" y2="385" stroke="black" stroke-width="1" />
<line x1="385" x2="415" y1="385" y2="385" stroke="black" stroke-width="1" />
<line x1="415" x2="415" y1="385" y2="417.5" stroke="black" stroke-width="1" />
<line x1="415" x2="380" y1="417.5" y2="417.5" stroke="black" stroke-width="1" />
<line x1="380" x2="380" y1="417.5" y2="380" stroke="black" stroke-width="1" />
<line x1="380" x2="420" y1="380" y2="380" stroke="black" stroke-width="1" />
<line x1="420" x2="420" y1="380" y2="422.5" stroke="black" stroke-width="1" />
<line x1="420" x2="375" y1="422.5" y2="422.5" stroke="black" stroke-width="1" />
<line x1="375" x2="375" y1="422.5" y2="375" stroke="black" stroke-width="1" />
<line x1="375" x2="425" y1="375" y2="375" stroke="black" stroke-width="1" />
<line x1="425" x2="425" y1="375" y2="427.5" stroke="black" stroke-width="1" />
<line x1="425" x2="370" y1="427.5" y2="427.5" stroke="black" stroke-width="1" />
<line x1="370" x2="370" y1="427.5" y2="370" stroke="black" stroke-width="1" />
<line x1="370" x2="430" y1="370" y2="370" stroke="black" stroke-width="1" />
<line x1="430" x2="430" y1="370" y2="432.5" stroke="black" stroke-width="1" />
<line x1="430" x2="365" y1="432.5" y2="432.5" stroke="black" stroke-width="1" />
<line x1="365" x2="365" y1="432.5" y2="365" stroke="black" stroke-width="1" />
<line x1="365" x2="435" y1="365" y2="365" stroke="black" stroke-width="1" />
<line x1="435" x2="435" y1="365" y2="437.5" stroke="black" stroke-width="1" />
<line x1="435" x2="360" y1="437.5" y2="437.5" stroke="black" stroke-width="1" />
<line x1="360" x2="360" y1="437.5" y2="360" stroke="black" stroke-width="1" />
<line x1="360" x2="440" y1="360" y2="360" stroke="black" stroke-width="1" />
<line x1="440" x2="440" y1="360" y2="442.5" stroke="black" stroke-width="1" />
<line x1="440" x2="355" y1="442.5" y2="442.5" stroke="black" stroke-width="1" />
<line x1="355" x2="355" y1="442.5" y2="355" stroke="black" stroke-width="1" />
<line x1="355" x2="445" y1="355" y2="355" stroke="black" stroke-width="1" />
<line x1="445" x2="445" y1="355" y2="447.5" stroke="black" stroke-width="1" />
<line x1="445" x2="350" y1="447.5" y2="447.5" stroke="black" stroke-width="1" />
<line x1="350" x2="350" y1="447.5" y2="350" stroke="black" stroke-width="1" />
<line x1="350" x2="450" y1="350" y2="350" stroke="black" stroke-width="1" />
<line x1="450" x2="450" y1="350" y2="452.5" stroke="black" stroke-width="1" />
<line x1="450" x2="345" y1="452.5" y2="452.5" stroke="black" stroke-width="1" />
<line x1="345" x2="345" y1="452.5" y2="345" stroke="black" stroke-width="1" />
<line x1="345" x2="455" y1="345" y2="345" stroke="black" stroke-width="1" />
<line x1="455" x2="455" y1="345" y2="457.5" stroke="black" stroke-width="1" />
<line x1="455" x2="340" y1="457.5" y2="457.5" stroke="black" stroke-width="1" />
<line x1="340" x2="340" y1="457.5" y2="340" stroke="black" stroke-width="1" />
<line x1="340" x2="460" y1="340" y2="340" stroke="black" stroke-width="1" />
<line x1="460" x2="460" y1="340" y2="462.5" stroke="black" stroke-width="1" />
<line x1="460" x2="335" y1="462.5" y2="462.5" stroke="black" stroke-width="1" />
<line x1="335" x2="335" y1="462.5" y2="335" stroke="black" stroke-width="1" />
<line x1="335" x2="465" y1="335" y2="335" stroke="black" stroke-width="1" />
<line x1="465" x2="465" y1="335" y2="467.5" stroke="black" stroke-width="1" />
<line x1="465" x2="330" y1="467.5" y2="467.5" stroke="black" stroke-width="1" />
<line x1="330" x2="330" y1="467.5" y2="330" stroke="black" stroke-width="1" />
<line x1="330" x2="470" y1="330" y2="330" stroke="black" stroke-width="1" />
<line x1="470" x2="470" y1="330" y2="472.5" stroke="black" stroke-width="1" />
<line x1="470" x2="325" y1="472.5" y2="472.5" stroke="black" stroke-width="1" />
<line x1="325" x2="325" y1="472.5" y2="325" stroke="black" stroke-width="1" />
<line x1="325" x2="475" y1="325" y2="325" stroke="black" stroke-width="1" />
<line x1="475" x2="475" y1="325" y2="477.5" stroke="black" stroke-width="1" />
<line x1="475" x2="320" y1="477.5" y2="477.5" stroke="black" stroke-width="1" />
<line x1="320" x2="320" y1="477.5" y2="320" stroke="black" stroke-width="1" />
<line x1="320" x2="480" y1="320" y2="320" stroke="black" stroke-width="1" />
</svg>
